<?xml version="1.0" encoding="UTF-8"?>
<svg version="1.1" xmlns="http://www.w3.org/2000/svg" width="1774" height="887">
<path d="M0 0 C585.42 0 1170.84 0 1774 0 C1774 292.71 1774 585.42 1774 887 C1188.58 887 603.16 887 0 887 C0 594.29 0 301.58 0 0 Z " fill="#FDFDFD" transform="translate(0,0)"/>
<path d="M0 0 C2.95705545 0.35390355 5.91737009 0.67233963 8.87861633 0.98892212 C39.95291835 4.31731931 70.75884135 9.55739798 101.27349854 16.27209473 C102.59991931 16.56053324 103.92641898 16.84860913 105.25299072 17.13635254 C120.08049194 20.35792878 134.78690265 23.72905012 149.27349854 28.27209473 C152.12434998 29.11684103 154.98033247 29.94378839 157.83599854 30.77209473 C171.32855711 34.70332928 184.70265736 39.0130934 198.03741455 43.44665527 C200.33671481 44.20983247 202.63808168 44.96654759 204.93951416 45.7232666 C214.53916381 48.90078987 223.92641817 52.41245694 233.27349854 56.27209473 C234.8769696 56.91965316 236.4809613 57.56592799 238.08599854 58.20959473 C238.85814697 58.52025879 239.63029541 58.83092285 240.42584229 59.15100098 C242.76630969 60.07241956 245.1124814 60.9717902 247.46490479 61.86193848 C255.45774555 64.90043438 263.21355478 68.06069776 270.81646729 72.00256348 C274.67273665 73.99507149 278.64954184 75.64346633 282.69537354 77.20959473 C290.69086032 80.39011986 298.18604377 84.29088251 305.76177979 88.34240723 C310.83725863 91.05466568 315.95264301 93.68496159 321.07305908 96.31115723 C342.04888199 107.09219293 362.26207505 118.57186189 381.87994385 131.67443848 C383.87770719 133.00791086 385.88109852 134.33155811 387.89068604 135.64709473 C405.59363875 147.29253842 422.62350419 160.00724929 438.64801025 173.87316895 C440.37924576 175.36310278 442.12380087 176.83626188 443.87115479 178.30725098 C449.90425678 183.40147711 455.71946897 188.55906339 461.23052979 194.22521973 C464.42173416 197.42252583 467.83863554 200.34234302 471.27349854 203.27209473 C476.35231302 198.98931204 481.21313129 194.53978125 486.02349854 189.95959473 C491.38604213 184.89349792 496.81637118 180.02286663 502.59381104 175.42834473 C505.02712543 173.47034248 507.39031237 171.44801009 509.74639893 169.39831543 C517.46516406 162.71567389 525.65575891 156.777757 533.99029541 150.89074707 C536.19328618 149.32896041 538.38329765 147.75059607 540.57037354 146.16662598 C549.69771106 139.58689566 559.05536844 133.56034104 568.7197876 127.80285645 C571.48571874 126.14488434 574.23546426 124.46193318 576.98443604 122.77600098 C591.41215077 113.96589074 606.10154047 105.82370563 621.05914307 97.9630127 C624.05101184 96.38913429 627.03648069 94.80389955 630.01959229 93.21350098 C631.70821867 92.3160349 633.39700808 91.41887546 635.08599854 90.52209473 C636.19563965 89.93077759 636.19563965 89.93077759 637.32769775 89.32751465 C641.57146254 87.08964989 645.85008014 85.12897 650.27349854 83.27209473 C651.61440613 82.62079675 652.94942185 81.95696198 654.27349854 81.27209473 C658.61853013 79.07460748 663.04297624 77.14014909 667.58209229 75.37365723 C672.79281157 73.34139542 677.78990273 71.09747244 682.75396729 68.51818848 C722.74836749 48.73801225 767.34488472 35.80630393 810.27349854 24.27209473 C811.4906958 23.94386719 812.70789307 23.61563965 813.9619751 23.27746582 C825.79517962 20.12135325 837.72734994 17.47262114 849.71099854 14.95959473 C850.9269873 14.70452148 852.14297607 14.44944824 853.39581299 14.18664551 C858.19190136 13.20607619 862.93077963 12.24071428 867.80865479 11.79162598 C872.63193403 11.33770945 877.23943837 10.14965 881.94390869 9.0255127 C887.08005274 7.86330852 892.25050445 7.08101153 897.46099854 6.33459473 C899.17863403 6.08528198 899.17863403 6.08528198 900.93096924 5.83093262 C926.60486348 2.17989255 952.42591028 -0.63987196 978.27349854 -2.72790527 C979.25573898 -2.81074768 980.23797943 -2.89359009 981.24998474 -2.97894287 C990.49792415 -3.70797835 999.710299 -3.93736798 1008.98052979 -4.00134277 C1010.14949956 -4.01079265 1010.14949956 -4.01079265 1011.34208488 -4.02043343 C1017.2566974 -4.06680413 1023.17122275 -4.09073605 1029.08599854 -4.10290527 C1030.39104591 -4.10569426 1030.39104591 -4.10569426 1031.72245789 -4.10853958 C1072.9740426 -4.17335423 1113.05899324 -1.43175474 1153.27349854 8.27209473 C1154.38160889 8.53619141 1155.48971924 8.80028809 1156.63140869 9.0723877 C1162.19690169 10.40724648 1167.74332887 11.79783574 1173.27349854 13.27209473 C1173.60349854 14.59209473 1173.93349854 15.91209473 1174.27349854 17.27209473 C1152.8825924 28.33332936 1129.89604065 36.13212563 1107.27349854 44.27209473 C1105.93520996 44.75392212 1105.93520996 44.75392212 1104.56988525 45.2454834 C1092.63264986 49.51960727 1080.70068938 53.42393646 1068.44830322 56.68225098 C1064.62397128 57.71947437 1060.82401343 58.83876071 1057.02349854 59.95959473 C1056.33207764 60.16221924 1055.64065674 60.36484375 1054.92828369 60.5736084 C1052.09892933 61.40861978 1049.30404226 62.26070628 1046.53912354 63.29162598 C1041.53270121 64.79475038 1036.4364766 65.49516922 1031.27349854 66.27209473 C1030.62151489 66.37048645 1029.96953125 66.46887817 1029.29779053 66.57025146 C1024.8602242 67.23652568 1020.41945552 67.87757858 1015.97613525 68.50427246 C1014.43465507 68.72302877 1012.89362623 68.94499139 1011.35308838 69.17028809 C1002.11886167 70.52002718 992.99022313 71.48254491 983.66630554 71.90689087 C977.09655639 72.22570849 970.69695953 73.12090851 964.21099854 74.20959473 C955.73083868 75.55149712 947.34024608 76.59437797 938.77349854 77.14709473 C921.74545919 78.30551194 904.88936163 80.99548388 888.00982666 83.44445801 C882.2511994 84.27833141 876.48922616 85.08732306 870.72662354 85.89318848 C867.9155155 86.28804856 865.10448103 86.68342682 862.29348755 87.07910156 C860.52011902 87.32831942 858.74662469 87.57664416 856.97299194 87.82397461 C846.73224331 89.25496835 836.57217992 90.86806502 826.42233276 92.85467529 C824.0998257 93.30583135 821.77524023 93.74485213 819.45001221 94.1817627 C806.07546503 96.69841548 792.73251142 99.36194835 779.39849854 102.08459473 C777.80190903 102.41032974 777.80190903 102.41032974 776.17306519 102.74264526 C738.29193874 110.48351412 701.01490956 119.63173254 663.90216064 130.46594238 C660.6847575 131.40475163 657.46646072 132.34045314 654.24810791 133.27600098 C652.17188165 133.88128321 650.09570785 134.48674543 648.01959229 135.09240723 C647.07256943 135.36747101 646.12554657 135.64253479 645.14982605 135.92593384 C639.47978979 137.58458756 633.86298689 139.35923688 628.27349854 141.27209473 C630.06521484 140.75207886 630.06521484 140.75207886 631.89312744 140.22155762 C658.53546773 132.50785329 685.20046578 125.30925649 712.27349854 119.27209473 C713.62539 118.96888743 714.9772781 118.6656651 716.3291626 118.36242676 C728.03938253 115.75019216 739.74271613 113.22998377 751.59893799 111.37512207 C756.5094837 110.59880827 761.36655157 109.65612462 766.23321533 108.64123535 C803.71517995 100.84798601 841.63814384 95.66337127 879.79693604 92.70568848 C885.46162141 92.26627451 891.11755794 91.74915809 896.77349854 91.20959473 C897.61638428 91.13015625 898.45927002 91.05071777 899.32769775 90.96887207 C902.83643909 90.63183423 906.3248496 90.26511367 909.81860352 89.79014587 C914.53991187 89.20006372 919.25546708 88.93273872 924.00689697 88.71789551 C924.92159634 88.67578508 925.8362957 88.63367466 926.77871323 88.59028816 C936.36630933 88.17957341 945.94424975 88.12661486 955.53912354 88.13928223 C957.39652519 88.13860522 959.25392676 88.13763193 961.11132812 88.13638306 C964.96324526 88.13492618 968.81513887 88.13699577 972.66705322 88.14172363 C977.55348699 88.1474359 982.43986597 88.1441195 987.32629776 88.13815117 C991.14774982 88.13450442 994.9691893 88.13570258 998.79064178 88.13827896 C1000.59079749 88.13893606 1002.39095443 88.13816353 1004.1911087 88.13579941 C1019.9824451 88.11959066 1035.58854564 88.75648757 1051.27349854 90.70959473 C1052.31377197 90.83141113 1053.35404541 90.95322754 1054.42584229 91.07873535 C1059.82535517 91.73580092 1065.07292092 92.59971638 1070.36578369 93.85046387 C1073.49530644 94.54213085 1076.62704063 94.71677414 1079.81646729 94.92834473 C1082.79557779 95.34513602 1085.42277062 96.31366034 1088.27349854 97.27209473 C1090.08835389 97.662582 1091.90381543 98.05100737 1093.72491455 98.41125488 C1128.84127421 105.45320789 1164.85394086 119.30730401 1195.27349854 138.27209473 C1194.94349854 139.26209473 1194.61349854 140.25209473 1194.27349854 141.27209473 C1181.5722059 147.341739 1163.68918389 147.27631724 1149.89849854 148.26428223 C1148.72887573 148.34875107 1147.55925293 148.43321991 1146.35418701 148.52024841 C1132.83600168 149.47334002 1119.31129284 150.2242557 1105.77349854 150.83459473 C1104.71619663 150.88280994 1104.71619663 150.88280994 1103.6375351 150.93199921 C1071.56970208 152.38243601 1039.4946376 152.66804007 1007.39849854 152.89709473 C1006.13920029 152.90620377 1004.87990204 152.91531281 1003.58244324 152.92469788 C990.07033072 153.0218506 976.55816618 153.10959269 963.04595947 153.19250488 C912.45673436 153.50369187 862.00348534 155.0877081 811.46490479 157.33459473 C810.55825388 157.3746784 809.65160297 157.41476208 808.7174778 157.45606041 C797.22974037 157.96622763 785.75073703 158.56340693 774.27349854 159.27209473 C775.28087067 159.24311096 776.2882428 159.2141272 777.32614136 159.18426514 C809.43319234 158.27860787 841.52962158 158.02550835 873.64849854 158.02209473 C874.92794971 158.02180016 876.20740089 158.02150558 877.52562332 158.02120209 C966.71135065 158.01790409 1056.47011654 159.94013026 1144.68292236 174.39978027 C1147.40021207 174.84511873 1150.11891217 175.28093739 1152.83795166 175.7154541 C1182.57288877 180.49533518 1182.57288877 180.49533518 1194.43365479 184.36584473 C1196.85249852 185.13774534 1199.23730672 185.77345481 1201.71099854 186.33459473 C1207.83847459 187.94708842 1211.56809854 190.08495827 1215.39849854 195.14709473 C1218.8947316 199.60597305 1222.52838834 203.8215214 1226.39849854 207.95959473 C1227.43378597 209.07014953 1228.46894601 210.18082311 1229.50396729 211.29162598 C1229.98656006 211.8093457 1230.46915283 212.32706543 1230.96636963 212.86047363 C1233.81089489 215.9323909 1236.54033424 219.10140809 1239.27349854 222.27209473 C1240.30701776 223.46379154 1241.34090963 224.65516523 1242.37506104 225.84631348 C1244.61420282 228.42629782 1246.85301641 231.00656248 1249.08990479 233.58850098 C1249.62631592 234.19282959 1250.16272705 234.7971582 1250.71539307 235.4197998 C1252.27349854 237.27209473 1252.27349854 237.27209473 1253.62457275 239.27087402 C1255.71399706 242.21723909 1257.10938588 243.99591405 1260.70928955 244.84997559 C1263.585312 245.04211869 1266.39253975 245.04556498 1269.27349854 244.95959473 C1281.01570696 244.74935625 1281.01570696 244.74935625 1286.27349854 249.27209473 C1287.27349854 250.27209473 1287.27349854 250.27209473 1287.58599854 254.02209473 C1287.55045281 257.32192256 1287.27763141 258.26539661 1285.46099854 261.20959473 C1281.43965427 265.00114789 1277.08484387 264.41331894 1271.87515259 264.39907837 C1270.57072391 264.40141836 1270.57072391 264.40141836 1269.23994315 264.40380561 C1266.30758918 264.4078113 1263.37528654 264.40462605 1260.44293213 264.40148926 C1258.33968068 264.40284481 1256.23642947 264.40462561 1254.13317871 264.40679932 C1248.36400517 264.41139272 1242.59484938 264.40956661 1236.82567549 264.40642023 C1230.64907253 264.40386252 1224.47247095 264.40624755 1218.29586792 264.4078064 C1207.10325359 264.40975383 1195.91064629 264.40662599 1184.71803363 264.40154706 C1174.90334825 264.39722576 1165.08867256 264.39782088 1155.27398682 264.40246582 C1096.29070865 264.42964304 1037.31510384 264.26729241 978.33367071 263.78236577 C922.1876603 263.32125978 866.04227062 263.09986803 809.89459229 262.95568848 C808.31626293 262.95161771 808.31626293 262.95161771 806.70604813 262.9474647 C779.9303759 262.87846791 753.15469122 262.81536597 726.37899899 262.75468588 C710.85611677 262.71944749 695.3332393 262.68247899 679.81036377 262.64440918 C678.69935059 262.64168491 677.5883374 262.63896064 676.44365715 262.63615381 C670.86385065 262.62246318 665.28404422 262.60874512 659.70423782 262.5950135 C614.22733442 262.48313188 568.750421 262.37591875 523.27349854 262.27209473 C522.98772949 263.03868408 522.70196045 263.80527344 522.40753174 264.59509277 C517.82758255 275.40653364 505.68838467 283.79687762 495.29547119 288.08898926 C477.35239602 294.87333005 459.43251952 293.53005337 442.02349854 285.70959473 C432.94332893 280.82884872 424.55551592 273.1383382 419.27349854 264.27209473 C419.27349854 263.61209473 419.27349854 262.95209473 419.27349854 262.27209473 C373.27805979 262.40580481 327.28263434 262.54372901 281.28721627 262.68436266 C274.86629007 262.70398673 268.44536357 262.72350886 262.02443695 262.7429924 C155.69147899 263.04367313 155.69147899 263.04367313 49.35943604 263.56115723 C48.39579046 263.56702905 47.43214488 263.57290088 46.43929791 263.57895064 C38.04631834 263.6302688 29.65334527 263.68260624 21.26037693 263.73572826 C-14.06837069 263.9590279 -49.39732882 264.1322221 -84.72650146 264.27209473 C-86.56388996 264.27939527 -86.56388996 264.27939527 -88.43839741 264.2868433 C-124.53429366 264.42953206 -160.63014549 264.54124109 -196.72628403 264.59872532 C-199.67681638 264.60347841 -202.62734865 264.60828513 -205.57788086 264.61312866 C-206.67020075 264.61490471 -206.67020075 264.61490471 -207.78458771 264.61671665 C-219.43590001 264.63605725 -231.08709892 264.67211035 -242.73834745 264.71453192 C-254.40050793 264.7565594 -266.06256561 264.7793881 -277.7248041 264.78411037 C-284.10914689 264.78718695 -290.49320762 264.79857415 -296.87747383 264.83115578 C-302.77444143 264.86097593 -308.67096453 264.86768974 -314.5679915 264.85589111 C-316.71499506 264.85569321 -318.86201899 264.86405403 -321.00895095 264.88159001 C-323.92234544 264.90413068 -326.83408202 264.89606288 -329.7474823 264.88009644 C-330.59294965 264.89397835 -331.438417 264.90786026 -332.30950457 264.92216283 C-336.63315964 264.86347388 -338.23730028 264.66044539 -341.74398899 261.87667274 C-343.77362223 259.21018858 -344.43140925 258.06796922 -344.41400146 254.77209473 C-344.43849365 254.03990723 -344.46298584 253.30771973 -344.48822021 252.55334473 C-343.53935277 249.71160839 -342.06014106 248.03799019 -339.69500732 246.21887207 C-335.75687047 244.32477624 -331.42253584 245.11987566 -327.16400146 245.33459473 C-321.23135784 245.3702776 -316.32164879 245.34651267 -311.64056396 241.38928223 C-308.78076494 238.47099732 -306.30523173 235.29234763 -303.93988037 231.96496582 C-302.42396145 229.84999966 -300.73028653 227.94215287 -298.97650146 226.02209473 C-298.45572021 225.41881348 -297.93493896 224.81553223 -297.39837646 224.19396973 C-295.36892074 221.86104398 -293.29885446 219.56698227 -291.22650146 217.27209473 C-288.59469702 214.35720543 -285.98363221 211.42936262 -283.41400146 208.45959473 C-279.62421112 204.0964082 -275.67874406 199.878066 -271.72528076 195.66345215 C-268.90120148 192.70445068 -268.90120148 192.70445068 -266.72650146 189.27209473 C-258.0754229 185.63648196 -249.18288167 183.61995862 -239.97161865 182.06530762 C-236.04148018 181.36518195 -232.21743823 180.39924258 -228.35931396 179.36975098 C-219.50222633 177.09068695 -210.57840414 175.61823693 -201.53900146 174.27209473 C-200.69725372 174.14514221 -199.85550598 174.0181897 -198.98825073 173.88739014 C-163.837994 168.60834011 -128.51812335 165.90789039 -93.06958008 163.49993896 C-89.87541891 163.28224405 -86.6815561 163.06058967 -83.48773193 162.8380127 C-28.81775445 159.05749077 25.80560416 158.08188404 80.5881958 158.02666855 C84.2667525 158.02217923 87.94529058 158.01447964 91.62384033 158.00613403 C121.86093246 157.94661002 152.00932557 158.44264926 182.21083641 159.97357941 C187.57209704 160.23582035 192.90563324 160.30899233 198.27349854 160.27209473 C169.8170227 158.47112525 141.347816 156.92812836 112.85943604 155.73303223 C112.08544968 155.70051715 111.31146332 155.66800208 110.51402283 155.6345017 C70.32687855 153.95887391 30.13548277 153.58022163 -10.08123779 153.2555542 C-26.92146484 153.11930832 -43.76154608 152.96579687 -60.60150146 152.79943848 C-61.51180367 152.79049293 -62.42210587 152.78154738 -63.35999298 152.77233076 C-89.54095158 152.51274064 -115.71362957 152.09377318 -141.88687897 151.40010381 C-144.16702492 151.34006701 -146.44721218 151.28191774 -148.72741699 151.22416496 C-174.86725076 150.55423131 -201.15809756 149.76706421 -227.10150146 146.33459473 C-229.04863037 146.09966309 -229.04863037 146.09966309 -231.03509521 145.85998535 C-238.18788581 144.94678574 -244.91118425 143.64960034 -251.72650146 141.27209473 C-251.38118009 138.57142096 -251.04252934 137.52631657 -248.88519287 135.79089355 C-248.08259033 135.33738525 -247.27998779 134.88387695 -246.45306396 134.41662598 C-245.54459717 133.9030957 -244.63613037 133.38956543 -243.70013428 132.86047363 C-218.68500606 119.49853405 -192.89679417 109.72336899 -165.60687256 102.07971191 C-163.26275582 101.42245321 -160.92588844 100.74603243 -158.58978271 100.06115723 C-137.67644683 94.30941468 -115.25749716 91.84533036 -93.67059326 90.48986816 C-91.51204154 90.31652646 -91.51204154 90.31652646 -88.72650146 89.27209473 C-86.07086485 89.03884492 -83.43592502 88.8556724 -80.77508545 88.72009277 C-79.97735183 88.67805316 -79.17961821 88.63601355 -78.35771084 88.5927 C-69.22297731 88.14789169 -60.09288447 88.10795438 -50.94915771 88.10412598 C-49.08574908 88.10089458 -47.22234067 88.09752928 -45.3589325 88.09403992 C-41.47046322 88.08810083 -37.58201596 88.08619422 -33.69354248 88.08679199 C-29.78757026 88.08687263 -25.88171688 88.08002101 -21.97576904 88.06628418 C23.25822071 87.90968961 67.70128042 91.41277569 112.64849854 96.33459473 C113.84383209 96.46442749 115.03916565 96.59426025 116.27072144 96.72802734 C119.71751701 97.10373639 123.16355146 97.48578608 126.60943604 97.86975098 C127.63742813 97.98115921 128.66542023 98.09256744 129.7245636 98.20735168 C135.23879563 98.82959345 140.63157813 99.67241018 146.06201172 100.81440735 C148.8988049 101.40150759 151.74724338 101.84188631 154.61334229 102.26037598 C165.53666692 103.90198559 176.39501792 105.90941497 187.25854492 107.90356445 C189.26185874 108.26996583 191.26587898 108.63226381 193.27008057 108.99377441 C237.6258964 117.02493024 281.06828879 128.50471892 324.27349854 141.27209473 C321.2945618 140.32865879 318.31530607 139.38623397 315.33599854 138.44396973 C314.08979736 138.0492749 314.08979736 138.0492749 312.81842041 137.64660645 C300.71107145 133.81889398 288.55278629 130.18930261 276.33209229 126.74084473 C275.54371979 126.51781677 274.75534729 126.29478882 273.94308472 126.06500244 C269.95285216 124.93621562 265.96126135 123.81279237 261.96685791 122.69885254 C260.48437227 122.28078431 259.00194768 121.86249954 257.51959229 121.44396973 C256.83296005 121.25459839 256.14632782 121.06522705 255.43888855 120.87011719 C252.29104779 119.97564932 250.02638841 119.10735464 247.27349854 117.27209473 C244.94621067 116.7052269 244.94621067 116.7052269 242.33990479 116.33850098 C236.19395397 115.30160435 230.23828055 113.78228042 224.21099854 112.20959473 C193.17305134 104.32212617 161.80671604 98.178217 130.20074463 93.07189941 C126.23000443 92.43007109 122.26276041 91.76929073 118.29637146 91.10116577 C96.67342254 87.46901062 74.99193054 84.67034166 53.20733643 82.18786621 C51.62854202 82.00613861 51.62854202 82.00613861 50.01785278 81.82073975 C48.0256561 81.59213716 46.0330098 81.36741108 44.03988647 81.14703369 C43.16009125 81.04610413 42.28029602 80.94517456 41.37384033 80.84118652 C40.6024321 80.75491501 39.83102386 80.66864349 39.03623962 80.57975769 C37.27349854 80.27209473 37.27349854 80.27209473 36.27349854 79.27209473 C32.92673513 79.03195111 29.58703642 78.87857492 26.23443604 78.7545166 C22.12446649 78.56140633 18.20723944 78.11816467 14.16802979 77.32287598 C7.80345905 76.1006619 1.42311391 75.58108746 -5.03210449 75.06771851 C-18.41217259 73.99686104 -31.76082432 72.68924049 -45.10150146 71.20959473 C-45.85204803 71.12759827 -46.6025946 71.04560181 -47.37588501 70.96112061 C-56.20835258 69.99321555 -64.98011581 68.86000495 -73.72650146 67.27209473 C-74.44177002 67.14326904 -75.15703857 67.01444336 -75.89398193 66.88171387 C-77.75628731 66.54057998 -79.61645608 66.18784369 -81.47650146 65.83459473 C-83.26314209 65.49621582 -83.26314209 65.49621582 -85.08587646 65.15100098 C-85.76972412 65.01983887 -86.45357178 64.88867676 -87.15814209 64.75354004 C-89.19636153 64.37147077 -91.23735911 64.00422689 -93.27923584 63.64221191 C-102.55333259 61.98329203 -111.6399368 59.90583754 -120.72650146 57.39709473 C-121.40606903 57.21144958 -122.0856366 57.02580444 -122.78579712 56.83453369 C-138.80483253 52.44179063 -154.58669946 47.30235641 -170.35540771 42.09240723 C-171.08433731 41.85207764 -171.81326691 41.61174805 -172.56428528 41.36413574 C-177.32952001 39.77801458 -182.03606449 38.06673116 -186.72650146 36.27209473 C-187.78538574 35.86837646 -188.84427002 35.4646582 -189.9352417 35.04870605 C-204.0996195 29.59022763 -218.13033561 24.05075456 -231.72650146 17.27209473 C-231.39650146 15.95209473 -231.06650146 14.63209473 -230.72650146 13.27209473 C-157.0811011 -7.27948851 -75.72999842 -9.26118219 0 0 Z " fill="#010101" transform="translate(415.72650146484375,372.7279052734375)"/>
<path d="M0 0 C0.33 0.99 0.66 1.98 1 3 C-0.06665039 4.67163086 -0.06665039 4.67163086 -1.78515625 6.52734375 C-2.43500488 7.2322998 -3.08485352 7.93725586 -3.75439453 8.66357422 C-7.93426683 13.0124955 -12.16315544 17.30638292 -16.4375 21.5625 C-17.34048828 22.46935547 -18.24347656 23.37621094 -19.17382812 24.31054688 C-23.7210514 28.85118474 -28.31971079 33.25779943 -33.19702148 37.44213867 C-35.97483675 39.84230647 -38.63537662 42.36390305 -41.3125 44.875 C-46.10995628 49.33826707 -51.03162373 53.56974429 -56.14453125 57.671875 C-58.77211485 59.81420035 -61.33415518 62.01153751 -63.88916016 64.23876953 C-71.67677191 71.01870157 -79.78770501 77.29557221 -88.03369141 83.50537109 C-89.78244954 84.83463572 -91.51121131 86.18371963 -93.23046875 87.55078125 C-111.13042027 101.69938459 -131.28176904 116.98278062 -153.9375 121.875 C-160.18914011 123.28797232 -166.31099995 124.93631631 -172.44726562 126.796875 C-180.39465022 129.17195545 -188.41693469 131.26433647 -196.4375 133.375 C-197.17591125 133.5694873 -197.91432251 133.76397461 -198.67510986 133.96435547 C-201.65225157 134.74846664 -204.62946764 135.53229409 -207.60684204 136.31552124 C-230.32758662 142.2945313 -252.95950992 148.49747261 -275.41918945 155.39672852 C-281.71645894 157.32517787 -288.03430345 159.1577612 -294.375 160.9375 C-306.34819872 164.32469926 -318.1868415 168.09366311 -330 172 C-330.63999939 172.21140625 -331.27999878 172.4228125 -331.93939209 172.640625 C-359.36338209 181.71274672 -386.37677998 191.78644908 -413 203 C-414.99975213 203.83392797 -416.99972655 204.66732325 -419 205.5 C-419.98097656 205.90992188 -420.96195313 206.31984375 -421.97265625 206.7421875 C-424.06046498 207.60963835 -426.15185439 208.46850395 -428.24609375 209.3203125 C-429.29925781 209.75085938 -430.35242187 210.18140625 -431.4375 210.625 C-432.38496094 211.00914062 -433.33242187 211.39328125 -434.30859375 211.7890625 C-437.01938773 213.00872307 -439.45627544 214.46803062 -442 216 C-443.44340472 216.61935184 -444.90285237 217.20246439 -446.375 217.75 C-453.40481736 220.50214258 -460.2044071 223.72155373 -467 227 C-467.81017578 227.39074707 -468.62035156 227.78149414 -469.45507812 228.18408203 C-483.07873322 234.79314606 -496.29852845 241.98076552 -509.42285156 249.52783203 C-511.71730777 250.83851514 -514.02135922 252.12764059 -516.3359375 253.40234375 C-545.28566235 269.34973789 -573.3179353 288.19170614 -599 309 C-599.68094727 309.54946289 -600.36189453 310.09892578 -601.06347656 310.66503906 C-609.51018698 317.49486225 -617.76960526 324.44324952 -625.6796875 331.890625 C-628 334 -628 334 -631 336 C-629.72645622 333.3183341 -628.33940732 330.94563093 -626.56640625 328.56640625 C-626.08792236 327.92405029 -625.60943848 327.28169434 -625.11645508 326.61987305 C-624.6036499 325.94093994 -624.09084473 325.26200684 -623.5625 324.5625 C-622.76332153 323.50059448 -622.76332153 323.50059448 -621.94799805 322.41723633 C-617.67083685 316.78286858 -613.18859465 311.35981916 -608.5703125 306.00390625 C-606.21652665 303.25305318 -603.94585614 300.45419524 -601.6875 297.625 C-597.402493 292.35173913 -592.80695987 287.40618061 -588.13549805 282.47705078 C-584.59472225 278.73812938 -581.16748071 274.92423378 -577.79003906 271.03735352 C-574.74012568 267.56605958 -571.59300797 264.18763391 -568.4375 260.8125 C-567.80392578 260.12736328 -567.17035156 259.44222656 -566.51757812 258.73632812 C-562.86987816 254.83317646 -559.13561062 251.37542979 -555 248 C-553.31029208 246.35669763 -551.64537399 244.68769072 -550 243 C-548.83836365 241.82440904 -547.6755084 240.65002181 -546.51171875 239.4765625 C-545.89224365 238.85185059 -545.27276855 238.22713867 -544.63452148 237.58349609 C-534.44239242 227.33130056 -534.44239242 227.33130056 -529.140625 222.859375 C-526.70927897 220.74747589 -524.36836715 218.55253842 -522.02148438 216.34765625 C-516.42339253 211.08938467 -510.75330844 206.02957736 -504.75390625 201.2265625 C-502.28832681 199.23311529 -499.87449322 197.19016142 -497.47167969 195.12182617 C-489.93415178 188.64577582 -482.09586797 182.6049197 -474.15966797 176.62744141 C-472.04148993 175.03126519 -469.92856598 173.42834665 -467.81640625 171.82421875 C-466.46123108 170.79909095 -465.10577348 169.77433638 -463.75 168.75 C-463.16178467 168.30342041 -462.57356934 167.85684082 -461.9675293 167.39672852 C-451.20645194 159.30726601 -439.93760249 151.88865914 -428.74414062 144.41601562 C-426.63188507 143.00460062 -424.52298133 141.58826916 -422.4140625 140.171875 C-413.43471614 134.16246291 -404.3156217 128.47223873 -395 123 C-394.16339844 122.50322754 -393.32679688 122.00645508 -392.46484375 121.49462891 C-368.8016695 107.46589903 -344.36815336 93.70127849 -319 83 C-317.58746046 82.35414556 -316.17750456 81.70262424 -314.76953125 81.046875 C-285.46406214 67.43107537 -255.53364018 55.5520475 -225 45 C-224.30976746 44.76132202 -223.61953491 44.52264404 -222.90838623 44.2767334 C-218.29942444 42.68623147 -213.68338986 41.11801458 -209.0625 39.5625 C-207.94633301 39.18569092 -206.83016602 38.80888184 -205.68017578 38.4206543 C-188.37408914 32.68619057 -170.74593612 28.03289813 -153.0625 23.625 C-152.13009491 23.39177032 -151.19768982 23.15854065 -150.23703003 22.91824341 C-136.56406198 19.50792882 -122.85358588 16.33344304 -109.0625 13.4375 C-108.28520538 13.27364807 -107.50791077 13.10979614 -106.70706177 12.940979 C-88.48637529 9.12017129 -70.12949198 6.83550632 -51.66821289 4.52905273 C-48.51683022 4.13468526 -45.36582517 3.73740242 -42.21484375 3.33984375 C-41.24820297 3.22003647 -40.28156219 3.10022919 -39.28562927 2.97679138 C-37.93755943 2.80640099 -37.93755943 2.80640099 -36.56225586 2.63256836 C-35.77539902 2.53423203 -34.98854218 2.43589569 -34.17784119 2.33457947 C-32.07174059 2.01102143 -30.06313011 1.52588739 -28 1 C-18.67500089 -0.08993496 -9.37112811 -0.11665305 0 0 Z " fill="#010101" transform="translate(1537,217)"/>
<path d="M0 0 C6.59420451 0.01646493 13.16795343 0.18463563 19.75390625 0.5078125 C20.81339478 0.55397705 20.81339478 0.55397705 21.89428711 0.60107422 C27.19822553 0.89208143 32.33093764 1.71241934 37.56079102 2.62451172 C42.72675822 3.46328141 47.92531914 3.96259172 53.12890625 4.5078125 C64.04691221 5.70455323 74.71911189 7.52570508 85.47753906 9.70263672 C89.50103006 10.48443989 93.5512605 11.07167619 97.609375 11.640625 C138.25735571 18.13193751 178.67507675 30.29212832 217.69140625 43.1328125 C218.54154297 43.4102832 219.39167969 43.68775391 220.26757812 43.97363281 C227.0336454 46.19906848 233.73443121 48.61143623 240.44140625 51.0078125 C242.2203125 51.64009766 242.2203125 51.64009766 244.03515625 52.28515625 C255.33332588 56.3184548 266.52852443 60.55649247 277.56640625 65.2578125 C278.3553125 65.59167969 279.14421875 65.92554688 279.95703125 66.26953125 C282.84257606 67.49181352 285.72782449 68.71418511 288.60205078 69.96289062 C292.29979569 71.5683968 296.02801552 73.0069775 299.81640625 74.3828125 C305.68966587 76.61316426 311.07428611 79.36856011 316.5234375 82.484375 C318.88584065 83.71364026 320.99095139 84.64621929 323.47265625 85.52734375 C328.35542702 87.2897743 332.82338573 89.72519206 337.37890625 92.1953125 C344.36695188 96.0229411 344.36695188 96.0229411 351.69140625 99.1328125 C351.69140625 99.7928125 351.69140625 100.4528125 351.69140625 101.1328125 C352.51253906 101.37773437 353.33367187 101.62265625 354.1796875 101.875 C358.29159752 103.34778646 362.02569068 105.21471599 365.87890625 107.2578125 C366.6884375 107.68594238 367.49796875 108.11407227 368.33203125 108.55517578 C404.67592688 128.04736571 438.85453481 151.25665001 471.69140625 176.1328125 C472.2730957 176.57125488 472.85478516 177.00969727 473.45410156 177.46142578 C480.69413034 182.92191179 487.69662055 188.59366837 494.58203125 194.4921875 C497.36355436 196.86999631 500.20716975 199.16130701 503.06640625 201.4453125 C509.05882953 206.31470477 514.62947121 211.60689303 520.2421875 216.90234375 C522.80050224 219.31199129 525.39641632 221.6590337 528.06640625 223.9453125 C531.64546363 227.02082284 534.93784459 230.34067972 538.22265625 233.7265625 C540.18612471 235.6403229 542.1700758 237.41875239 544.25 239.19921875 C549.30448217 243.58699458 554.01703109 248.3082053 558.73706055 253.0480957 C560.25133205 254.56772918 561.77088055 256.08193767 563.29101562 257.59570312 C568.05013388 262.35156611 572.69763374 267.15682845 577.07495117 272.27124023 C579.96294499 275.59716576 583.03061474 278.75489864 586.06640625 281.9453125 C591.10907838 287.28508474 595.95402906 292.69598077 600.53125 298.4453125 C602.51302189 300.91088042 604.55289075 303.31560904 606.61889648 305.71069336 C611.38932963 311.25475571 615.95141415 316.93590728 620.37890625 322.7578125 C620.90846924 323.44512451 621.43803223 324.13243652 621.98364258 324.84057617 C622.71103638 325.80894409 622.71103638 325.80894409 623.453125 326.796875 C623.88584717 327.36873535 624.31856934 327.9405957 624.7644043 328.52978516 C625.69140625 330.1328125 625.69140625 330.1328125 625.69140625 333.1328125 C624.88058594 332.37097656 624.06976562 331.60914063 623.234375 330.82421875 C617.20271146 325.18714145 611.11954563 319.69539177 604.67578125 314.52734375 C602.46113083 312.75040565 600.26648244 310.95785448 598.08203125 309.14453125 C574.03098957 289.24314113 547.74963007 271.67863881 520.69140625 256.1328125 C519.29801025 255.33012939 519.29801025 255.33012939 517.87646484 254.51123047 C504.33338732 246.74259353 490.59862385 239.38794004 476.69946289 232.28198242 C470.44656477 229.08402263 464.24187588 225.83130184 458.11303711 222.40063477 C454.88358255 220.70988393 451.55054683 219.4215519 448.1484375 218.125 C445.62417904 217.1056651 443.23752645 215.9386948 440.81640625 214.6953125 C436.34238305 212.40936627 431.78717865 210.4372094 427.13671875 208.5390625 C424.11542267 207.30588043 421.1017271 206.05671789 418.08984375 204.80078125 C417.04425293 204.36491699 415.99866211 203.92905273 414.92138672 203.47998047 C412.82898533 202.6072767 410.73684596 201.73394431 408.64501953 200.85986328 C392.49884363 194.13078084 376.26219106 187.95541819 359.74145508 182.21679688 C357.42055384 181.39195084 355.11677637 180.5417254 352.81396484 179.66894531 C348.83101681 178.16869438 344.81380489 176.79755627 340.7734375 175.4609375 C340.04284622 175.21778809 339.31225494 174.97463867 338.55952454 174.72412109 C336.208209 173.94199529 333.85615345 173.16213153 331.50390625 172.3828125 C328.23685736 171.29984614 324.96992639 170.21652523 321.703125 169.1328125 C320.50973511 168.73718109 320.50973511 168.73718109 319.29223633 168.33355713 C315.08934486 166.93790609 310.89443106 165.52336083 306.7109375 164.0703125 C294.38927921 159.8064079 281.88656674 156.40287228 269.2734375 153.125 C263.91666147 151.73071758 258.58015986 150.27766598 253.25 148.78515625 C243.22608271 145.98167879 233.1666297 143.3160575 223.10379028 140.65625 C219.8715626 139.80185019 216.63971032 138.94604347 213.40795898 138.08984375 C209.12280961 136.95458172 204.83757332 135.81964908 200.55224609 134.68505859 C188.59395044 131.51842632 176.63828384 128.34230371 164.69140625 125.1328125 C163.76908203 124.88595703 162.84675781 124.63910156 161.89648438 124.38476562 C156.81170378 123.02000295 151.7444501 121.610951 146.69140625 120.1328125 C145.75941406 119.86726563 144.82742188 119.60171875 143.8671875 119.328125 C126.8787619 113.8647722 111.70426119 102.87355256 97.69140625 92.1328125 C96.55010254 91.25955322 96.55010254 91.25955322 95.38574219 90.36865234 C90.82242989 86.86526173 86.28871285 83.32569971 81.76953125 79.765625 C79.83317164 78.24419959 77.88925645 76.73323295 75.94140625 75.2265625 C69.38319377 70.14108092 62.99575218 64.90226635 56.72509766 59.46557617 C53.31151031 56.5072934 49.85008685 53.63563651 46.31640625 50.8203125 C40.07246865 45.75691259 34.29569505 40.21383206 28.46484375 34.6875 C25.6102848 31.98488406 22.70944136 29.35021019 19.75390625 26.7578125 C14.90791789 22.41973701 10.26163894 17.88364274 5.62890625 13.3203125 C4.4833728 12.2068042 4.4833728 12.2068042 3.31469727 11.07080078 C2.60240967 10.36294434 1.89012207 9.65508789 1.15625 8.92578125 C0.51292725 8.2918042 -0.13039551 7.65782715 -0.79321289 7.00463867 C-2.41164088 5.0055268 -3.00113206 3.67302357 -3.30859375 1.1328125 C-2.30859375 0.1328125 -2.30859375 0.1328125 0 0 Z " fill="#010101" transform="translate(239.30859375,216.8671875)"/>
<path d="M0 0 C1.87788208 0.3861145 1.87788208 0.3861145 3.79370117 0.7800293 C14.85211527 3.09097854 25.77599667 5.8669095 36.68188477 8.80883789 C43.95512946 10.80275333 43.95512946 10.80275333 51.38671875 11.98046875 C54.64313475 12.3996114 56.98447347 13.22294816 59.93603516 14.59912109 C64.33547819 16.44197147 69.02839501 17.50727651 73.625 18.75 C75.88449282 19.37232626 78.14360398 19.9960398 80.40234375 20.62109375 C81.51593262 20.92901855 82.62952148 21.23694336 83.77685547 21.55419922 C101.27775965 26.44515174 118.5909909 32.02981068 135.9375 37.4375 C132.64419762 38.52949869 130.65254319 38.32889066 127.34814453 37.34863281 C126.43403305 37.08334274 125.51992157 36.81805267 124.57810974 36.54472351 C123.08925011 36.09719475 123.08925011 36.09719475 121.5703125 35.640625 C119.40656216 35.01026451 117.24274061 34.38014842 115.07885742 33.75024414 C113.93613373 33.4138089 112.79341003 33.07737366 111.61605835 32.73074341 C64.77313485 18.97873307 17.20248511 7.89306681 -31.0625 0.4375 C-31.0625 0.1075 -31.0625 -0.2225 -31.0625 -0.5625 C-28.4225 -0.5625 -25.7825 -0.5625 -23.0625 -0.5625 C-23.0625 -1.2225 -23.0625 -1.8825 -23.0625 -2.5625 C-17.21474473 -5.48637764 -6.11119735 -1.26081828 0 0 Z " fill="#DFE0E0" transform="translate(608.0625,476.5625)"/>
<path d="M0 0 C0 0.33 0 0.66 0 1 C1.65 1.33 3.3 1.66 5 2 C5 2.33 5 2.66 5 3 C4.16154541 3.15557373 3.32309082 3.31114746 2.45922852 3.47143555 C-6.68952143 5.17142488 -15.83542644 6.88609491 -24.97833252 8.61724854 C-26.79257698 8.96072971 -28.60697221 9.30341433 -30.42138672 9.64599609 C-47.03323699 12.80375134 -63.46249081 16.62309521 -79.90257263 20.56036377 C-84.09535561 21.56008641 -88.29449971 22.51538352 -92.5078125 23.42578125 C-108.40947785 26.88709125 -123.91961764 31.38038572 -139.48071289 36.12597656 C-140.35233063 36.38844681 -141.22394836 36.65091705 -142.12197876 36.92134094 C-143.77451059 37.41915333 -145.42492989 37.92404858 -147.07284546 38.43693542 C-152.66201151 40.11266283 -152.66201151 40.11266283 -156 39 C-142.84000242 34.32848571 -129.46259008 30.48543336 -116.0300293 26.69189453 C-115.31246964 26.48924484 -114.59490997 26.28659515 -113.85560608 26.07780457 C-112.39933887 25.66683326 -110.94290572 25.25644953 -109.48631287 24.84663391 C-105.9869637 23.85897433 -102.49422589 22.8554361 -99.01318359 21.80493164 C-86.35999605 17.98929468 -73.57299074 14.75461577 -60.75 11.5625 C-59.60634979 11.27719421 -58.46269958 10.99188843 -57.28439331 10.69793701 C-43.75010692 7.3283098 -30.21178359 3.99915121 -16.5625 1.125 C-15.42329102 0.88080322 -14.28408203 0.63660645 -13.11035156 0.38500977 C-12.08522461 0.17803467 -11.06009766 -0.02894043 -10.00390625 -0.2421875 C-8.71722046 -0.50298096 -8.71722046 -0.50298096 -7.40454102 -0.76904297 C-4.72899177 -1.02603044 -2.59618997 -0.64969951 0 0 Z " fill="#E0E0E0" transform="translate(1194,476)"/>
<path d="M0 0 C0.495 0.99 0.495 0.99 1 2 C-7.4163394 4.14183691 -15.84355824 6.21506395 -24.30859375 8.15625 C-44.85460112 12.89105701 -65.12869064 18.1377023 -85.28881836 24.328125 C-86.12231812 24.58104813 -86.95581787 24.83397125 -87.8145752 25.09455872 C-89.37265476 25.56820088 -90.92849608 26.04929364 -92.48156738 26.53910828 C-97.66381359 28.11206214 -97.66381359 28.11206214 -101 27 C-85.71306099 21.57346754 -70.11447144 17.24848957 -54.5091095 12.8522644 C-50.15873219 11.62315857 -45.81972462 10.36055788 -41.48661804 9.07194519 C-33.07508585 6.57074434 -24.63715082 4.26466633 -16.125 2.125 C-14.89136719 1.8053125 -13.65773438 1.485625 -12.38671875 1.15625 C-10.62134766 0.71152344 -10.62134766 0.71152344 -8.8203125 0.2578125 C-7.24660889 -0.14219971 -7.24660889 -0.14219971 -5.64111328 -0.55029297 C-3 -1 -3 -1 0 0 Z " fill="#B6B7B7" transform="translate(1139,488)"/>
<path d="M0 0 C1.03576172 0.22558594 2.07152344 0.45117188 3.13867188 0.68359375 C10.75924107 2.35724702 10.75924107 2.35724702 14.1875 3.5 C13.8575 4.49 13.5275 5.48 13.1875 6.5 C5.00786577 6.91132545 -2.55756539 5.65384242 -10.5625 4.0625 C-12.93224061 3.60520411 -15.3020306 3.14816397 -17.671875 2.69140625 C-19.22600098 2.38505249 -19.22600098 2.38505249 -20.81152344 2.07250977 C-23.80527031 1.50137924 -26.80439315 0.98928054 -29.8125 0.5 C-29.8125 0.17 -29.8125 -0.16 -29.8125 -0.5 C-27.1725 -0.5 -24.5325 -0.5 -21.8125 -0.5 C-21.8125 -1.16 -21.8125 -1.82 -21.8125 -2.5 C-16.14234062 -5.33507969 -5.91727486 -1.31328231 0 0 Z " fill="#D9D9D9" transform="translate(606.8125,476.5)"/>
<path d="M0 0 C1.32766136 -0.00163902 1.32766136 -0.00163902 2.68214417 -0.00331116 C4.12060951 0.01367577 4.12060951 0.01367577 5.58813477 0.03100586 C6.59871445 0.03745621 7.60929413 0.04390656 8.65049744 0.05055237 C19.83455834 0.17512143 30.99020486 0.78769137 42.15185547 1.47265625 C45.64777405 1.68676297 49.14421405 1.88986464 52.64086914 2.09155273 C54.88634908 2.22438844 57.13179336 2.35782861 59.37719727 2.49194336 C60.41151382 2.55240341 61.44583038 2.61286346 62.51148987 2.67515564 C67.24510349 2.96898553 71.86591494 3.32874727 76.52954102 4.24584961 C76.52954102 4.57584961 76.52954102 4.90584961 76.52954102 5.24584961 C65.91408031 5.33684701 55.35533583 5.06872426 44.75219727 4.58959961 C43.2042309 4.52205507 41.65625189 4.45479999 40.10826111 4.38781738 C36.08878801 4.21313233 32.06949577 4.03459051 28.05023193 3.85516357 C23.92690317 3.67180214 19.80341066 3.49220103 15.67993164 3.31225586 C7.62963927 2.96040648 -0.42046544 2.60447059 -8.47045898 2.24584961 C-5.51228067 0.55299225 -3.39826194 -0.00584172 0 0 Z " fill="#B4B4B3" transform="translate(543.470458984375,528.754150390625)"/>
<path d="M0 0 C1.53121509 0.41433481 3.05833756 0.84396408 4.58203125 1.28515625 C5.41283203 1.51533447 6.24363281 1.7455127 7.09960938 1.98266602 C9.8690863 2.7559052 12.63187781 3.55040251 15.39453125 4.34765625 C16.36342285 4.62351562 17.33231445 4.899375 18.33056641 5.18359375 C31.75897317 9.00837595 45.1041084 13.06901776 58.39453125 17.34765625 C54.90433181 18.54956976 52.71376336 18.13119929 49.20214844 17.1159668 C48.16717224 16.82203537 47.13219604 16.52810394 46.06585693 16.2252655 C44.95228821 15.89827164 43.83871948 15.57127777 42.69140625 15.234375 C41.53964905 14.90476273 40.38789185 14.57515045 39.20123291 14.23554993 C35.51293239 13.17799894 31.82871085 12.10696564 28.14453125 11.03515625 C24.47383902 9.97699723 20.80236775 8.92158353 17.13067627 7.86689758 C14.84601304 7.20955864 12.56208059 6.5496729 10.2789917 5.8868866 C4.67310554 4.26338269 -0.93179555 2.71641064 -6.60546875 1.34765625 C-3.60546875 -0.65234375 -3.60546875 -0.65234375 0 0 Z " fill="#B0B1B1" transform="translate(685.60546875,496.65234375)"/>
<path d="M0 0 C0 0.33 0 0.66 0 1 C2.475 1.495 2.475 1.495 5 2 C5 2.33 5 2.66 5 3 C2.3347536 3.50881977 -0.33178419 4.00720141 -3 4.5 C-3.74378906 4.64308594 -4.48757813 4.78617187 -5.25390625 4.93359375 C-10.25220015 5.84632568 -14.91920316 6.13856719 -20 6 C-20 4.66666667 -20 3.33333333 -20 2 C-17.60629375 1.46706163 -15.21091562 0.9484183 -12.8125 0.4375 C-12.13896484 0.28603516 -11.46542969 0.13457031 -10.77148438 -0.02148438 C-6.86746475 -0.8403763 -3.84812264 -1.1282845 0 0 Z " fill="#F0F0F0" transform="translate(1194,476)"/>
<path d="M0 0 C0 0.33 0 0.66 0 1 C-0.78246094 1.06058594 -1.56492187 1.12117187 -2.37109375 1.18359375 C-3.88896484 1.30927734 -3.88896484 1.30927734 -5.4375 1.4375 C-6.44683594 1.51871094 -7.45617188 1.59992187 -8.49609375 1.68359375 C-10.93640779 1.73211468 -10.93640779 1.73211468 -12 3 C-14.3756852 3.0883967 -16.72208674 3.11530305 -19.09765625 3.09765625 C-20.16094398 3.09553383 -20.16094398 3.09553383 -21.24571228 3.09336853 C-23.51801712 3.08775443 -25.79022475 3.07519963 -28.0625 3.0625 C-29.59960796 3.05748681 -31.13671745 3.05292359 -32.67382812 3.04882812 C-36.44925642 3.03778042 -40.22461171 3.02050641 -44 3 C-44 2.67 -44 2.34 -44 2 C-13.87347956 -0.38776806 -13.87347956 -0.38776806 0 0 Z " fill="#DEDEDE" transform="translate(1266,528)"/>
<path d="M0 0 C0 0.33 0 0.66 0 1 C-3.86207074 1.90816798 -7.43148656 2.11643845 -11.39453125 2.09765625 C-12.59658203 2.09443359 -13.79863281 2.09121094 -15.03710938 2.08789062 C-16.28298828 2.07951172 -17.52886719 2.07113281 -18.8125 2.0625 C-20.07771484 2.05798828 -21.34292969 2.05347656 -22.64648438 2.04882812 C-25.7643711 2.03706251 -28.88216133 2.02062272 -32 2 C-32 1.67 -32 1.34 -32 1 C-27.43820074 -0.07658463 -22.91393048 -0.36739079 -18.25 -0.625 C-17.45029785 -0.67003662 -16.6505957 -0.71507324 -15.82666016 -0.76147461 C-10.42586156 -1.02606863 -5.34884107 -0.89147351 0 0 Z " fill="#2D2D2C" transform="translate(1186,533)"/>
<path d="M0 0 C7.99441599 1.19601499 15.397691 3.26688367 23 6 C23 6.33 23 6.66 23 7 C16.05514697 7.48452463 9.7009632 5.69287491 3 4 C3 3.34 3 2.68 3 2 C2.01 2 1.02 2 0 2 C0 1.34 0 0.68 0 0 Z " fill="#E0E0E0" transform="translate(659,490)"/>
<path d="M0 0 C5.56890517 0.47986031 10.67067568 1.29915181 16 3 C15.67 3.99 15.34 4.98 15 6 C9.95860749 6.37810444 5.39358358 5.54806876 1 3 C0.67 2.01 0.34 1.02 0 0 Z " fill="#F8F8F8" transform="translate(605,477)"/>
<path d="M0 0 C1.65 0.33 3.3 0.66 5 1 C0.66666667 5.33333333 -3.66666667 9.66666667 -8 14 C-8 9.96618977 -6.40426438 8.50566363 -4 5.3125 C-3.2575 4.31863281 -2.515 3.32476563 -1.75 2.30078125 C-1.1725 1.54152344 -0.595 0.78226563 0 0 Z " fill="#2D2C2D" transform="translate(915,539)"/>
<path d="M0 0 C-6.06224407 3.32445643 -13.13938387 4.36108506 -20 4 C-13.44283228 -0.37144514 -7.68155297 -1.53631059 0 0 Z " fill="#CBCBCC" transform="translate(1112,496)"/>
<path d="M0 0 C3.59634744 3.49359465 6.83451967 7.11098131 10 11 C9.67 11.66 9.34 12.32 9 13 C5.37 9.7 1.74 6.4 -2 3 C-1.34 2.67 -0.68 2.34 0 2 C0 1.34 0 0.68 0 0 Z " fill="#2A2A2B" transform="translate(856,537)"/>
<path d="M0 0 C-2.66315194 2.66315194 -4.65344068 2.94426493 -8.359375 3.09765625 C-9.14828125 3.08605469 -9.9371875 3.07445312 -10.75 3.0625 C-11.54921875 3.05347656 -12.3484375 3.04445313 -13.171875 3.03515625 C-13.77515625 3.02355469 -14.3784375 3.01195312 -15 3 C-14 1 -14 1 -12.109375 0.33203125 C-4.3008954 -1.38738561 -4.3008954 -1.38738561 0 0 Z " fill="#E3E3E3" transform="translate(1122,493)"/>
<path d="M0 0 C1.98 0 3.96 0 6 0 C6.33 1.32 6.66 2.64 7 4 C9.31 4.66 11.62 5.32 14 6 C10.67465243 7.10844919 8.37817425 6.84454356 5 6 C5 5.34 5 4.68 5 4 C4.360625 3.896875 3.72125 3.79375 3.0625 3.6875 C2.381875 3.460625 1.70125 3.23375 1 3 C0.67 2.01 0.34 1.02 0 0 Z " fill="#D2D2D2" transform="translate(600,476)"/>
<path d="M0 0 C1.65 0.33 3.3 0.66 5 1 C5 1.33 5 1.66 5 2 C6.65 2.33 8.3 2.66 10 3 C10 3.33 10 3.66 10 4 C6.37 4.33 2.74 4.66 -1 5 C-0.67 3.35 -0.34 1.7 0 0 Z " fill="#E1E2E2" transform="translate(1189,475)"/>
<path d="M0 0 C0.33 0.66 0.66 1.32 1 2 C-0.65 1.67 -2.3 1.34 -4 1 C-4 1.66 -4 2.32 -4 3 C-3.01 3.33 -2.02 3.66 -1 4 C-7.15234375 3.4140625 -7.15234375 3.4140625 -9 3 C-9.33 2.34 -9.66 1.68 -10 1 C-6.78548731 -0.60725635 -3.56387464 -0.05748185 0 0 Z " fill="#BABABA" transform="translate(663,489)"/>
<path d="M0 0 C1.65 0 3.3 0 5 0 C5 0.66 5 1.32 5 2 C5.66 2.33 6.32 2.66 7 3 C6 4 6 4 3.4375 4.0625 C2.2309375 4.0315625 2.2309375 4.0315625 1 4 C0.67 2.68 0.34 1.36 0 0 Z " fill="#FAFAFA" transform="translate(595,475)"/>
<path d="M0 0 C6.75 0.75 6.75 0.75 9 3 C2.25 3.125 2.25 3.125 0 2 C0 1.34 0 0.68 0 0 Z " fill="#E8E8E8" transform="translate(673,494)"/>
<path d="M0 0 C0.66 0.66 1.32 1.32 2 2 C-0.8125 2.6875 -0.8125 2.6875 -4 3 C-5.875 1.5625 -5.875 1.5625 -7 0 C-3.98968256 -0.93423645 -3.13349732 -1.04449911 0 0 Z " fill="#D1D1D2" transform="translate(1126,491)"/>
<path d="M0 0 C2.92879371 0.62759865 5.36095629 1.58622659 8 3 C4.625 3.625 4.625 3.625 1 4 C0.34 3.34 -0.32 2.68 -1 2 C-0.67 1.34 -0.34 0.68 0 0 Z " fill="#D6D7D7" transform="translate(1139,486)"/>
</svg>
