<?xml version="1.0" encoding="UTF-8"?>
<svg version="1.1" xmlns="http://www.w3.org/2000/svg" width="1774" height="887">
<path d="M0 0 C585.42 0 1170.84 0 1774 0 C1774 292.71 1774 585.42 1774 887 C1188.58 887 603.16 887 0 887 C0 594.29 0 301.58 0 0 Z " fill="#FDFDFD" transform="translate(0,0)"/>
<path d="M0 0 C13.05036823 -0.59514347 25.56231773 1.2247364 38.4375 3.1875 C39.50381653 3.34684021 40.57013306 3.50618042 41.66876221 3.67034912 C60.9410946 6.55082232 80.08906305 9.63251623 98.77294922 15.30126953 C102.73734287 16.48456751 106.6211247 17.28465142 110.71484375 17.90234375 C117.30155428 18.95161365 123.47622548 20.82482991 129.8125 22.875 C131.70864751 23.47745738 133.60481161 24.07986412 135.5014801 24.68067932 C136.85271241 25.10883109 138.20364917 25.5379166 139.55430603 25.96788025 C144.81173042 27.63767392 150.0856465 29.24815566 155.3671875 30.83984375 C230.00635373 53.37181931 301.39325737 84.34828316 368 125 C369.03882324 125.63292969 370.07764648 126.26585937 371.14794922 126.91796875 C385.73998979 135.8410763 399.95946633 145.23507089 414 155 C415.12196777 155.7744043 415.12196777 155.7744043 416.26660156 156.56445312 C428.47314427 164.99079775 440.25948555 173.93914306 452 183 C452.80147461 183.61697754 453.60294922 184.23395508 454.42871094 184.86962891 C472.73065413 198.96768969 490.66847305 213.46680427 507.78125 228.99609375 C509.79308393 230.81311982 511.82660434 232.59944392 513.875 234.375 C518.75273268 238.63210665 523.52311773 243.00464352 528.2734375 247.40283203 C529.42523514 248.46831 530.57888688 249.53178713 531.734375 250.59326172 C542.11549691 260.1422013 552.1434112 270.03724762 562.125 280 C562.75969208 280.63210388 563.39438416 281.26420776 564.04830933 281.91546631 C576.2095333 294.03755126 576.2095333 294.03755126 581.64794922 300.4296875 C583.48949139 302.56851005 585.47512935 304.53557325 587.5 306.5 C590.85944183 309.81978568 594.02193404 313.23015222 597.1015625 316.80859375 C599.47371663 319.54682105 601.88635641 322.24720051 604.3125 324.9375 C605.15425781 325.87464844 605.99601563 326.81179688 606.86328125 327.77734375 C608.79867031 330.03886196 608.79867031 330.03886196 611 331 C611.11472656 329.82953125 611.22945312 328.6590625 611.34765625 327.453125 C613.45620056 310.80402991 623.80224447 293.95906006 632.25 279.75 C639.13494352 267.88180099 642.71934527 255.28794609 645.56445312 241.95068359 C645.99284193 240.03205886 646.48814682 238.12877054 646.984375 236.2265625 C648.30702377 230.99967882 649.13485209 225.693189 650 220.375 C650.17805176 219.30540039 650.35610352 218.23580078 650.53955078 217.13378906 C651.62017441 210.59361402 651.62017441 210.59361402 652.4921875 204.0234375 C655.24743682 180.46324436 664.8445292 155.83535121 683.15234375 140.07421875 C693.99914446 132.17346267 705.32981681 128.60841819 718.6875 128.625 C719.7587915 128.62371094 720.83008301 128.62242187 721.93383789 128.62109375 C728.83917195 128.71362049 734.2081029 129.44791268 740.59375 132.10546875 C745.09242559 133.77786601 749.63426939 133.52662423 754.26586914 132.49560547 C759.29783245 131.58348068 764.39983748 131.81541438 769.5 131.8125 C770.62792969 131.80025391 771.75585938 131.78800781 772.91796875 131.77539062 C774.55185547 131.77249023 774.55185547 131.77249023 776.21875 131.76953125 C777.20810547 131.76542236 778.19746094 131.76131348 779.21679688 131.75708008 C782.15684315 132.01368938 784.33200924 132.77047047 787 134 C786.39947932 137.54125788 786.11898675 137.90899164 783.04296875 140.26171875 C781.76431751 141.08056028 780.47867577 141.88855347 779.1875 142.6875 C777.81470146 143.57027115 776.44362939 144.45573241 775.07421875 145.34375 C774.38763184 145.7871875 773.70104492 146.230625 772.99365234 146.6875 C755.70464399 158.06953636 744.73465971 170.48314124 740 191 C739.82637939 191.63421875 739.65275879 192.2684375 739.47387695 192.921875 C736.15911181 207.45834122 739.9163137 223.05851311 744 237 C744.34546875 238.19882812 744.6909375 239.39765625 745.046875 240.6328125 C746.79004628 246.21953358 749.00462359 251.38573547 751.75390625 256.55078125 C753 259 753 259 754.24609375 261.98046875 C756.69925878 267.79216146 759.65518975 273.37345733 762.5 279 C781 315.58980044 781 315.58980044 781 331 C784.141399 328.71534618 786.72220071 326.26231609 789.234375 323.32421875 C792.78569025 319.22157263 796.46020052 315.25506598 800.1875 311.3125 C801.38992488 310.03832822 802.59172445 308.76356611 803.79296875 307.48828125 C804.78031006 306.44075684 804.78031006 306.44075684 805.78759766 305.37207031 C807.37666651 303.66831915 808.95301072 301.9526665 810.52099609 300.22949219 C818.70554967 291.23538453 827.23725179 282.60947033 835.84667969 274.02294922 C838.26353992 271.61149034 840.6749529 269.19467561 843.0859375 266.77734375 C844.64551251 265.21842898 846.2053974 263.65982414 847.765625 262.1015625 C848.47414612 261.39101715 849.18266724 260.6804718 849.91265869 259.94839478 C853.88019045 255.99921656 857.94040132 252.22405086 862.19769287 248.58822632 C864.04467303 246.9606333 865.77687381 245.25749044 867.5 243.5 C870.48872337 240.46405075 873.61706479 237.65491341 876.84375 234.875 C879.19962958 232.82640906 881.5050746 230.72796998 883.8125 228.625 C888.10608632 224.74966257 892.53088002 221.0777869 897.02734375 217.44140625 C900.33751811 214.7228005 903.57485499 211.92904783 906.8125 209.125 C913.14082704 203.6626181 919.65117608 198.47327324 926.25878906 193.35449219 C927.98954357 192.00813408 929.71104525 190.65083893 931.4296875 189.2890625 C937.56403911 184.43037719 943.74558415 179.64086332 950 174.9375 C950.59151855 174.49156494 951.18303711 174.04562988 951.79248047 173.58618164 C963.62063876 164.73476076 975.76250184 156.36525366 988.0625 148.1875 C988.78199829 147.70855286 989.50149658 147.22960571 990.24279785 146.73614502 C1008.75504059 134.42416762 1027.59365996 122.85199045 1047 112 C1048.22831543 111.30753174 1048.22831543 111.30753174 1049.48144531 110.60107422 C1083.79727705 91.29416849 1119.42935167 74.66297316 1156 60.125 C1157.33600754 59.59203812 1157.33600754 59.59203812 1158.69900513 59.04830933 C1170.87598141 54.2048436 1183.1498697 49.83802282 1195.6104126 45.78271484 C1199.1079739 44.6370806 1202.59108521 43.45033793 1206.07421875 42.26171875 C1220.34807221 37.42417133 1234.6607879 32.80097638 1249.125 28.5625 C1249.81757904 28.35926117 1250.51015808 28.15602234 1251.22372437 27.94662476 C1266.05645802 23.60663822 1280.98818033 19.67228751 1296 16 C1297.04285156 15.74347656 1298.08570313 15.48695313 1299.16015625 15.22265625 C1307.6820541 13.18839676 1316.27666223 11.57355838 1324.88671875 9.96484375 C1326.5913124 9.64411314 1328.29573984 9.32249796 1330 9 C1330.8657666 8.8364502 1331.7315332 8.67290039 1332.62353516 8.50439453 C1333.47608887 8.3392334 1334.32864258 8.17407227 1335.20703125 8.00390625 C1335.96089111 7.85896729 1336.71475098 7.71402832 1337.49145508 7.56469727 C1339.46624951 7.1201523 1341.42069375 6.58517557 1343.36376953 6.01782227 C1348.8348149 4.48641444 1354.40380228 3.62410845 1360.00366211 2.71289062 C1362.03506412 2.3795027 1364.0632389 2.02990663 1366.09179688 1.6796875 C1374.83152498 0.22180409 1383.14754392 -0.29539857 1392 0 C1393.00817968 3.1477563 1393.10453778 3.76204313 1391.69921875 6.9609375 C1384.12986245 19.80679654 1375.61275064 31.5939463 1366 43 C1365.18144531 43.99257812 1364.36289063 44.98515625 1363.51953125 46.0078125 C1351.74747138 60.2141024 1339.09809256 74.19053368 1325.07421875 86.203125 C1322.79842282 88.1746243 1320.59077333 90.21134395 1318.375 92.25 C1312.17140655 97.83323411 1305.62555871 102.93466845 1299 108 C1298.22769043 108.59151855 1297.45538086 109.18303711 1296.65966797 109.79248047 C1286.01388569 117.92324655 1275.27000687 125.75984274 1264 133 C1262.77458496 133.79422363 1262.77458496 133.79422363 1261.52441406 134.60449219 C1242.62550723 146.84700655 1223.25562319 157.99300034 1203.44042969 168.67773438 C1201.37202699 169.79842955 1199.31266577 170.9328716 1197.2578125 172.078125 C1185.64616839 178.46050675 1173.55994005 183.87051182 1161.52001953 189.38476562 C1158.28905213 190.8673624 1155.06343036 192.36081444 1151.83984375 193.859375 C1136.68968971 200.88345737 1121.37622873 207.48979254 1106 214 C1106.92554688 213.70867187 1107.85109375 213.41734375 1108.8046875 213.1171875 C1143.53341142 202.42597993 1179.96624088 196.0047145 1216.03125 191.95068359 C1217.01738281 191.83934082 1218.00351563 191.72799805 1219.01953125 191.61328125 C1219.88682861 191.51829346 1220.75412598 191.42330566 1221.64770508 191.32543945 C1223.94703846 191.05480912 1223.94703846 191.05480912 1225.93261719 190.49291992 C1228.63940003 189.84754976 1231.28250886 189.68740089 1234.05859375 189.5 C1235.25033203 189.4175 1236.44207031 189.335 1237.66992188 189.25 C1238.91322266 189.1675 1240.15652344 189.085 1241.4375 189 C1243.8737221 188.83368724 1246.30992017 188.66702208 1248.74609375 188.5 C1249.82560303 188.4278125 1250.9051123 188.355625 1252.01733398 188.28125 C1254.31940866 188.11868088 1256.62097918 187.94753257 1258.92059326 187.75323486 C1266.34201458 187.13705473 1273.70268805 186.82849146 1281.1484375 186.796875 C1282.26765594 186.78990601 1283.38687439 186.78293701 1284.54000854 186.77575684 C1288.15171101 186.75842181 1291.7632576 186.75203182 1295.375 186.75 C1297.23481506 186.74848938 1297.23481506 186.74848938 1299.13220215 186.74694824 C1370.16984786 186.78581785 1370.16984786 186.78581785 1399 196 C1398.39783772 199.53212784 1398.10096644 199.92078431 1395.0625 202.3046875 C1393.71776039 203.17617991 1392.36260078 204.03170721 1391 204.875 C1389.87742798 205.58402466 1389.87742798 205.58402466 1388.73217773 206.30737305 C1378.06231 212.95091616 1367.02685257 218.97581318 1356 225 C1354.94603027 225.5765332 1353.89206055 226.15306641 1352.80615234 226.74707031 C1329.7923185 239.30522768 1306.50881915 251.35797188 1283.015625 262.99365234 C1281.16992472 263.91516113 1279.33439516 264.85696856 1277.5 265.80078125 C1272.02314001 268.61605495 1266.61771412 271.01301892 1260.765625 272.9453125 C1258.48310741 273.81576412 1256.44836119 274.77527788 1254.2890625 275.8984375 C1249.7146502 278.22975252 1244.98540739 279.86993994 1240.125 281.5 C1235.02376177 283.22669424 1229.96106474 284.9842687 1224.96875 287.0078125 C1209.62600123 293.22630907 1193.78770258 297.51643737 1177.70898438 301.35205078 C1173.94572549 302.25216696 1170.19056149 303.18338517 1166.4375 304.125 C1164.6896521 304.56042114 1164.6896521 304.56042114 1162.90649414 305.00463867 C1159.2493371 305.9263002 1155.61633723 306.92722483 1151.98046875 307.9296875 C1144.34630166 309.99225907 1136.64876837 311.55002685 1128.875 313 C1127.51251477 313.25842959 1126.15013 313.51738931 1124.7878418 313.77685547 C1122.09496587 314.28885287 1119.40156715 314.79791499 1116.70751953 315.30371094 C1112.58980195 316.07703706 1108.47350168 316.85759945 1104.35766602 317.64086914 C1102.67216712 317.96147771 1100.98645957 318.2809915 1099.30053711 318.59936523 C1095.18605487 319.3790586 1091.078182 320.182426 1086.9765625 321.02734375 C1075.36403066 323.41647664 1063.74070022 325.35130593 1052 327 C1052.78947021 326.91435791 1053.57894043 326.82871582 1054.39233398 326.74047852 C1081.17746877 323.85274578 1081.17746877 323.85274578 1091.4699707 323.41650391 C1095.52886062 323.21865052 1099.51147624 322.82434175 1103.5390625 322.27734375 C1153.75517126 315.69479468 1205.41653738 319.62611036 1255 329 C1255.95374512 329.17644043 1256.90749023 329.35288086 1257.89013672 329.53466797 C1296.31114364 336.7716326 1338.33454299 352.84676262 1370 376 C1369.67 376.99 1369.34 377.98 1369 379 C1363.35587602 381.25491372 1356.65921323 381.48695856 1350.6484375 382.03125 C1349.78245941 382.11338745 1348.91648132 382.1955249 1348.02426147 382.28015137 C1338.89948574 383.13089136 1329.76655247 383.85653568 1320.625 384.5 C1319.29434006 384.59471588 1319.29434006 384.59471588 1317.9367981 384.69134521 C1299.17529253 386.00828218 1280.397798 386.73035092 1261.60205078 387.35351562 C1259.94866951 387.40866837 1259.94866951 387.40866837 1258.2618866 387.4649353 C1256.23275493 387.53168668 1254.20355476 387.59641234 1252.17427063 387.65835571 C1247.27615933 387.81635677 1242.39443669 388.0390183 1237.50481319 388.3710165 C1222.65396964 389.33422998 1207.76138989 389.22749151 1192.88554525 389.30332303 C1188.72959511 389.32546324 1184.57367824 389.35271233 1180.41775513 389.37937927 C1172.57727778 389.42893286 1164.7367816 389.47400724 1156.89626801 389.51740164 C1147.95766731 389.56709694 1139.01910005 389.62189337 1130.08053184 389.67708123 C1111.72038572 389.79032676 1093.36020791 389.89728669 1075 390 C1075.777722 390.04414441 1076.55544399 390.08828882 1077.35673332 390.13377094 C1084.79479596 390.55724143 1092.23241138 390.98767448 1099.66964996 391.4253605 C1103.49045398 391.64998609 1107.31136224 391.87219341 1111.13265991 392.08827209 C1131.37172463 393.23491515 1151.39550044 394.86127941 1171.4453125 397.94921875 C1177.64024782 398.89002703 1183.77835764 399.39949132 1190.03225708 399.67448425 C1194.90285496 399.90285496 1194.90285496 399.90285496 1196 401 C1198.91203867 401.45936169 1201.81459283 401.8633686 1204.73828125 402.234375 C1206.59671224 402.47843061 1208.45510933 402.72274455 1210.31347656 402.96728516 C1211.29320435 403.09484192 1212.27293213 403.22239868 1213.28234863 403.3538208 C1258.59082004 409.27770768 1258.59082004 409.27770768 1280.23046875 415.0390625 C1284.58781345 416.14984675 1288.96859706 417.04684409 1293.375 417.9375 C1302.72344396 419.86283874 1311.84527903 422.31110028 1321 425 C1322.12438477 425.32661621 1323.24876953 425.65323242 1324.40722656 425.98974609 C1365.56884786 437.97139235 1405.02714906 453.1362769 1438.83203125 480.2734375 C1440.73482074 481.78881219 1442.54970407 482.98163948 1444.6875 484.125 C1448 486 1448 486 1450 488 C1450.5412844 493.68348624 1450.5412844 493.68348624 1450 496 C1446.93305848 498.89871452 1444.83381137 499.3695302 1440.671875 499.328125 C1439.58543701 499.32385498 1438.49899902 499.31958496 1437.37963867 499.31518555 C1436.18185791 499.29367432 1434.98407715 499.27216309 1433.75 499.25 C1431.81894409 499.23030151 1431.81894409 499.23030151 1429.84887695 499.21020508 C1426.29642492 499.17067749 1422.74469612 499.10836623 1419.19268799 499.04034424 C1417.04500858 499.00082813 1414.89733154 498.96786356 1412.74951172 498.93701172 C1388.74688698 498.58155159 1364.78344144 497.46923435 1340.80984497 496.29483032 C1322.3940949 495.39354706 1303.98699143 494.62245763 1285.55078125 494.29101562 C1278.73368133 494.16583009 1271.94313141 493.9636319 1265.13671875 493.5390625 C1256.24701072 492.99611548 1247.35102994 492.74291419 1238.44921875 492.5 C1237.69722198 492.47943165 1236.94522522 492.4588633 1236.17044067 492.43767166 C1230.67621842 492.28828416 1225.18187034 492.14381992 1219.6875 492 C1213.44133037 491.83609887 1207.19522197 491.67013242 1200.94921875 491.5 C1200.18979225 491.47939577 1199.43036575 491.45879154 1198.64792633 491.43756294 C1190.30068355 491.20889041 1181.9600666 490.94200411 1173.62109375 490.49609375 C1164.21813948 489.99747839 1154.81101409 489.7608716 1145.3984375 489.53515625 C1144.59577517 489.51577374 1143.79311283 489.49639122 1142.9661274 489.47642136 C1135.44938896 489.29552474 1127.93253062 489.11997218 1120.41552734 488.95043945 C1101.96473025 488.53214354 1083.53492232 487.98023635 1065.1015625 487.06640625 C1037.59745591 485.70796528 1010.07465768 484.90293244 982.55062735 484.07441729 C977.46995088 483.9209097 972.38948198 483.76150546 967.30908203 483.59912109 C938.48051825 482.6790999 909.65826812 481.83064049 880.8125 481.7578125 C879.80792755 481.75240322 878.8033551 481.74699394 877.76834106 481.74142075 C837.45360046 481.56380316 802.28626103 486.44251875 767.8125 508.125 C744.86819559 522.52366614 722.44141498 528.36678988 695.375 528.375 C694.69849396 528.37690338 694.02198792 528.37880676 693.32498169 528.38076782 C665.3212553 528.37183169 639.82643405 518.78336045 616.67138672 503.51782227 C600.92537661 493.13946781 585.01421981 488.16123528 566.5 484.8125 C565.58734375 484.64532471 564.6746875 484.47814941 563.734375 484.3059082 C547.54047292 481.53115856 531.12160325 481.78729594 514.74609375 481.79296875 C513.5054611 481.79263327 512.26482845 481.79229778 510.98660088 481.79195213 C478.75975922 481.81297191 446.56840028 482.92330589 414.36499536 484.05728424 C406.3089448 484.34041551 398.25244118 484.60947789 390.19590986 484.87850976 C358.98783603 485.92282085 327.78527935 487.07047387 296.58595276 488.3495388 C262.51898799 489.74611408 228.45117627 490.86807201 194.36916286 491.82247406 C181.23463217 492.19089326 168.10055596 492.5754171 154.96647978 492.95964479 C152.79490241 493.02315247 150.62332142 493.08653546 148.45174026 493.14991379 C123.29789145 493.884866 98.14789265 494.70794103 73 495.625 C71.3110455 495.68633482 69.62209083 495.74766502 67.93313599 495.80899048 C53.23285936 496.34388132 38.53339431 496.89809633 23.83477783 497.47679138 C-19.35043073 499.17598047 -19.35043073 499.17598047 -37.8737793 499.29653931 C-39.43192137 499.3070051 -40.99004168 499.32180654 -42.5480957 499.34140015 C-44.62093647 499.36458854 -46.69268375 499.36766936 -48.765625 499.36328125 C-50.47927246 499.36775269 -50.47927246 499.36775269 -52.22753906 499.37231445 C-55 499 -55 499 -56.85449219 497.71948242 C-58.49313597 495.25977054 -58.59582004 492.88580751 -58.46875 489.984375 C-57.62571298 486.41551828 -54.92052917 484.84893537 -52 483 C-47.19290601 479.80991528 -42.4037081 476.59720949 -37.64453125 473.3359375 C-8.98921058 453.80290416 21.49232714 438.23929755 55.109375 429.32421875 C58.78483351 428.34557811 62.43273796 427.29234689 66.078125 426.20703125 C67.13169189 425.89378906 68.18525879 425.58054687 69.27075195 425.2578125 C71.32001168 424.64608375 73.36811282 424.03045449 75.41479492 423.41015625 C81.09312406 421.72385586 86.71119281 420.41037443 92.55102539 419.41821289 C95.56062852 418.90426112 98.52675776 418.25495247 101.5 417.5625 C102.4796875 417.33691406 103.459375 417.11132812 104.46875 416.87890625 C106.40401422 416.39723097 108.33657639 415.90047394 110.24902344 415.33496094 C118.7958433 412.83984616 127.47133526 411.49045495 136.25 410.125 C137.89079776 409.86540437 139.53150293 409.60522296 141.17211914 409.34448242 C144.50579153 408.81517966 147.83990246 408.2887696 151.17431641 407.76416016 C155.63321655 407.06067269 160.08865953 406.33740076 164.54296875 405.60546875 C203.76845425 399.16646715 203.76845425 399.16646715 220.9609375 398.30859375 C226.45053779 397.95781621 231.85415308 397.02210506 237.28198242 396.16064453 C243.32049234 395.21598917 249.35480766 394.47126239 255.4375 393.875 C256.20481445 393.79967041 256.97212891 393.72434082 257.76269531 393.64672852 C260.17418703 393.41875998 262.58672656 393.20827923 265 393 C266.25823326 392.88943771 266.25823326 392.88943771 267.54188538 392.77664185 C278.45057068 391.87623359 289.37923787 391.4271298 300.3125 390.9375 C302.32487823 390.84588823 304.3372481 390.75409276 306.34960938 390.66210938 C311.23297925 390.43928963 316.11645523 390.21895159 321 390 C320.14820915 389.99576806 319.2964183 389.99153612 318.41881561 389.98717594 C297.53621573 389.88313502 276.65364467 389.77439964 255.77109528 389.66066074 C245.67178857 389.605763 235.57247839 389.55236076 225.47314453 389.50268555 C216.65390035 389.45930264 207.83467763 389.41290376 199.01546717 389.36312145 C194.36094049 389.3369468 189.70641686 389.31211983 185.05186462 389.29092598 C167.24787359 389.20888776 149.45145947 389.06996284 131.65429688 388.54272461 C130.96930902 388.52361499 130.28432116 388.50450537 129.57857609 388.48481667 C127.67490507 388.43028642 125.77146103 388.36799517 123.86804199 388.30528259 C122.80109856 388.27063872 121.73415512 388.23599485 120.63488007 388.20030117 C118 388 118 388 115 387 C112.93081978 386.81299859 110.85694759 386.67647994 108.78222656 386.56689453 C107.49527893 386.49657013 106.2083313 386.42624573 104.88238525 386.35379028 C104.19271919 386.31794956 103.50305313 386.28210884 102.7924881 386.24518204 C100.60973906 386.13119965 98.42739158 386.01124921 96.24505615 385.88961792 C90.0381813 385.54452608 83.83086713 385.2080161 77.62304688 384.88037109 C59.62873677 383.92694592 41.83275464 382.73484558 24 380 C23.67 378.68 23.34 377.36 23 376 C28.17635935 371.94465219 33.41687766 368.39951464 39.1875 365.25 C39.96158203 364.82589844 40.73566406 364.40179687 41.53320312 363.96484375 C66.47397895 350.46935611 92.58651311 340.24004517 120 333 C120.88461914 332.76442383 121.76923828 332.52884766 122.68066406 332.28613281 C141.65965794 327.30512394 160.95034203 324.44608207 180.4375 322.3125 C181.52490479 322.19310059 182.61230957 322.07370117 183.73266602 321.95068359 C200.77776336 320.188409 217.8112599 319.7614769 234.9375 319.75 C235.99437012 319.74899292 237.05124023 319.74798584 238.14013672 319.74694824 C270.40210511 319.76747112 302.35774115 322.33986711 334.3125 326.68041992 C337.04542953 327.05904079 337.04542953 327.05904079 340 327 C327.65793621 324.44972661 315.32084772 321.99117108 302.875 320 C293.36571596 318.46190311 283.98278953 316.57775001 274.5859375 314.46484375 C269.6209102 313.34868083 264.64592562 312.29137396 259.6640625 311.25390625 C223.93890983 303.78207093 186.86090156 295.92667829 153.1875 281.5625 C149.32204754 279.93774897 145.44953853 278.40769988 141.5 277 C133.69322446 274.20540064 126.11760208 271.27056125 119 267 C117.55516698 266.40367801 116.09582361 265.84148042 114.625 265.3125 C109.32207964 263.26129542 104.41132039 260.64706849 99.44189453 257.90551758 C98.53673096 257.40894653 98.53673096 257.40894653 97.61328125 256.90234375 C97.08516846 256.60835693 96.55705566 256.31437012 96.01293945 256.01147461 C93.66754393 254.83294536 91.25888186 253.83058186 88.84294128 252.80683899 C85.95037597 251.540475 83.1531962 250.10408626 80.34375 248.6640625 C79.72805649 248.34853424 79.11236298 248.03300598 78.47801208 247.70791626 C76.48358222 246.68365283 74.49153271 245.65488418 72.5 244.625 C71.81326202 244.27062866 71.12652405 243.91625732 70.41897583 243.55114746 C59.61190179 237.96713467 48.97042504 232.14211642 38.421875 226.08203125 C33.82299279 223.44590408 29.1680385 220.93036873 24.4909668 218.4362793 C16.32833443 214.07240225 8.36590739 209.51783344 0.625 204.4375 C-0.14884033 203.93661865 -0.92268066 203.4357373 -1.7199707 202.91967773 C-2.76737427 202.21500366 -2.76737427 202.21500366 -3.8359375 201.49609375 C-4.75705322 200.88012329 -4.75705322 200.88012329 -5.69677734 200.25170898 C-6.12684082 199.83864502 -6.5569043 199.42558105 -7 199 C-7 198.01 -7 197.02 -7 196 C-0.77790449 194.02305051 5.48836609 192.97026535 11.9375 192 C13.09596436 191.82557373 14.25442871 191.65114746 15.44799805 191.47143555 C26.4229199 189.91605505 37.39895246 189.16579812 48.46264648 188.59570312 C49.74985596 188.52931641 51.03706543 188.46292969 52.36328125 188.39453125 C54.06931519 188.31489136 54.06931519 188.31489136 55.80981445 188.23364258 C58.93826973 188.06472842 58.93826973 188.06472842 61.73266602 187.48583984 C66.46003317 186.78289875 71.14092753 186.83771937 75.9140625 186.83203125 C77.52016891 186.82574707 77.52016891 186.82574707 79.15872192 186.81933594 C82.64751834 186.8095288 86.13619202 186.80955347 89.625 186.8125 C90.81516724 186.81277191 92.00533447 186.81304382 93.23156738 186.81332397 C122.03429686 186.84360235 150.44295739 188.0500447 179 192 C180.90479808 192.25243529 182.80974609 192.50374191 184.71484375 192.75390625 C190.14748886 193.47327183 195.57416426 194.23117309 201 195 C202.3293457 195.185625 202.3293457 195.185625 203.68554688 195.375 C206.31219101 195.74338252 208.93747084 196.12029617 211.5625 196.5 C212.32280518 196.60634766 213.08311035 196.71269531 213.86645508 196.82226562 C220.67048277 197.8266802 227.31181881 199.4126656 234 201 C235.96887028 201.45358377 237.93775373 201.90711348 239.90708923 202.3586731 C256.40319933 206.14618671 272.79600285 210.082925 289 215 C288.39567139 214.75056641 287.79134277 214.50113281 287.16870117 214.24414062 C252.13717816 199.7299178 217.36418955 184.03890987 184 166 C183.22446777 165.58459961 182.44893555 165.16919922 181.64990234 164.74121094 C161.87947295 154.14254689 142.42812054 142.80869366 124 130 C123.34161133 129.54592773 122.68322266 129.09185547 122.00488281 128.62402344 C107.1845204 118.38613646 92.81503675 107.56216618 79 96 C77.49373047 94.74823975 77.49373047 94.74823975 75.95703125 93.47119141 C67.44205158 86.32854952 59.45201975 78.76443315 51.62084961 70.8815918 C49.67849516 68.92844512 47.72557042 66.9863238 45.77148438 65.04492188 C38.71980227 58.00099629 32.15622598 50.84827383 26 43 C24.9772912 41.76697422 23.95045964 40.53734629 22.91796875 39.3125 C15.46947797 30.32963608 9.19186456 20.81496489 3.13818359 10.84667969 C2.12834366 9.20823497 1.06760376 7.60140564 0 6 C-0.125 2.8125 -0.125 2.8125 0 0 Z " fill="#000000" transform="translate(192,174)"/>
<path d="M0 0 C47.52 0 95.04 0 144 0 C144 0.33 144 0.66 144 1 C129.98588647 2.20634311 116.07449206 3.38269012 102 3 C102 2.67 102 2.34 102 2 C68.34 1.67 34.68 1.34 0 1 C0 0.67 0 0.34 0 0 Z " fill="#D3D3D3" transform="translate(379,563)"/>
<path d="M0 0 C0 0.66 0 1.32 0 2 C10.395 1.505 10.395 1.505 21 1 C21 1.33 21 1.66 21 2 C14.20294677 3.12951032 7.37020125 3.49094601 0.5 3.9375 C-8.43822932 4.53975379 -17.25155029 5.30757658 -26.11328125 6.625 C-29.79050467 7.10269073 -33.29957366 7.15103781 -37 7 C-37 6.67 -37 6.34 -37 6 C-36.14245117 5.85377197 -35.28490234 5.70754395 -34.40136719 5.55688477 C-31.21056438 5.01204503 -28.02000015 4.4658342 -24.82958984 3.91870117 C-23.45045177 3.68247642 -22.07122077 3.4467935 -20.69189453 3.21166992 C-18.70580918 2.87301874 -16.7200874 2.53223748 -14.734375 2.19140625 C-13.54038086 1.98717041 -12.34638672 1.78293457 -11.11621094 1.57250977 C-9.34253272 1.24664989 -7.57245935 0.88686424 -5.82910156 0.42553711 C-4 0 -4 0 0 0 Z " fill="#B6B6B5" transform="translate(1276,495)"/>
<path d="M0 0 C16.17 0 32.34 0 49 0 C49 0.33 49 0.66 49 1 C34.98588647 2.20634311 21.07449206 3.38269012 7 3 C7 2.67 7 2.34 7 2 C4.69 1.67 2.38 1.34 0 1 C0 0.67 0 0.34 0 0 Z " fill="#B2B2B2" transform="translate(474,563)"/>
<path d="M0 0 C4.35587197 -0.02501826 8.71170407 -0.04300806 13.06762695 -0.05493164 C14.5445224 -0.05991084 16.02141305 -0.06669663 17.49829102 -0.07543945 C26.04775812 -0.12472428 34.49546897 -0.01214531 43 1 C43 1.33 43 1.66 43 2 C32.63048797 3.2847183 22.41563228 3.13729875 12 2.625 C11.26966553 2.59422363 10.53933105 2.56344727 9.78686523 2.53173828 C6.00305636 2.31964433 3.30279183 1.81817597 0 0 Z " fill="#E5E6E6" transform="translate(1283,564)"/>
<path d="M0 0 C6.60388411 0.92561604 13.17861763 1.98976047 19.75341797 3.10180664 C21.09114766 3.32672451 22.42937488 3.54870182 23.76806641 3.76782227 C25.71631675 4.0869855 27.66287946 4.4163974 29.609375 4.74609375 C30.76405273 4.93872803 31.91873047 5.1313623 33.10839844 5.32983398 C36 6 36 6 39 8 C26.27320659 7.26624849 13.64434102 5.57112034 1 4 C1.66 3.67 2.32 3.34 3 3 C3 2.34 3 1.68 3 1 C2.01 0.67 1.02 0.34 0 0 Z " fill="#AAAAAA" transform="translate(503,495)"/>
<path d="M0 0 C1.39518067 0.00502972 2.79036311 0.00959 4.18554688 0.01367188 C7.56124437 0.02535249 10.93684826 0.04173167 14.3125 0.0625 C14.3125 0.3925 14.3125 0.7225 14.3125 1.0625 C0.47920847 2.57383982 -12.81549399 3.34405861 -26.6875 2.0625 C-26.6875 1.7325 -26.6875 1.4025 -26.6875 1.0625 C-17.7839367 0.02295009 -8.95417943 -0.05678731 0 0 Z " fill="#F5F5F5" transform="translate(478.6875,563.9375)"/>
<path d="M0 0 C3.73361788 0.93117677 7.15173818 2.30575656 10.6484375 3.87890625 C11.28910156 4.16056641 11.92976563 4.44222656 12.58984375 4.73242188 C14.15373409 5.42100046 15.71397691 6.11785336 17.2734375 6.81640625 C13.84813513 7.95817371 12.95670076 7.64748841 9.60546875 6.6015625 C8.71279297 6.32763672 7.82011719 6.05371094 6.90039062 5.77148438 C5.97162109 5.47693359 5.04285156 5.18238281 4.0859375 4.87890625 C3.14556641 4.58822266 2.20519531 4.29753906 1.23632812 3.99804688 C-1.08717221 3.27858738 -3.40784768 2.55111439 -5.7265625 1.81640625 C-2.7265625 -0.18359375 -2.7265625 -0.18359375 0 0 Z " fill="#C0C1C0" transform="translate(465.7265625,382.18359375)"/>
<path d="M0 0 C1.32 0 2.64 0 4 0 C4 0.66 4 1.32 4 2 C14.395 1.505 14.395 1.505 25 1 C25 1.33 25 1.66 25 2 C19.02872819 2.98554972 13.10508542 3.31055351 7.0625 3.5625 C6.09248047 3.60568359 5.12246094 3.64886719 4.12304688 3.69335938 C1.74881399 3.79862093 -0.62550921 3.90075707 -3 4 C-1.75 2 -1.75 2 0 0 Z " fill="#9E9F9F" transform="translate(1272,495)"/>
<path d="M0 0 C0.66 0.33 1.32 0.66 2 1 C1.67 1.99 1.34 2.98 1 4 C-2.0546875 5.203125 -2.0546875 5.203125 -5.875 6.25 C-7.13054687 6.60578125 -8.38609375 6.9615625 -9.6796875 7.328125 C-13 8 -13 8 -16 7 C-13.3789879 5.80293183 -10.75385304 4.61711354 -8.125 3.4375 C-7.00544922 2.92413086 -7.00544922 2.92413086 -5.86328125 2.40039062 C-3.93450668 1.54026143 -1.9688967 0.76383202 0 0 Z " fill="#C7C7C7" transform="translate(1312,381)"/>
<path d="M0 0 C0.66 0.33 1.32 0.66 2 1 C0.515 3.475 0.515 3.475 -1 6 C-0.01 6.33 0.98 6.66 2 7 C0.35 6.67 -1.3 6.34 -3 6 C-2.42655063 3.13275314 -2.1385485 2.1385485 0 0 Z " fill="#3B3C3C" transform="translate(218,547)"/>
</svg>
